<mxfile host="app.diagrams.net" agent="Mozilla/5.0 (Windows NT 10.0; Win64; x64; rv:133.0) Gecko/20100101 Firefox/133.0" version="25.0.3">
  <diagram name="Página-1" id="CJ40Xup-y1DQuM6J7wTD">
    <mxGraphModel dx="2699" dy="530" grid="1" gridSize="10" guides="1" tooltips="1" connect="1" arrows="1" fold="1" page="1" pageScale="1" pageWidth="850" pageHeight="1100" math="0" shadow="0">
      <root>
        <mxCell id="0" />
        <mxCell id="1" parent="0" />
        <mxCell id="AoyPTIkJTHfzgpTR4V4o-3" value="&#xa;&#xa;  &lt;element name=&quot;Administrador&quot; type=&quot;actor&quot; height=&quot;50&quot; width=&quot;150&quot; y=&quot;100&quot; x=&quot;100&quot; id=&quot;1&quot;&gt;&#xa;    &lt;font color=&quot;#000000&quot; size=&quot;12&quot;&gt;&#xa;  &lt;/font&gt;&lt;/element&gt;&lt;font color=&quot;#000000&quot; size=&quot;12&quot;&gt;&#xa;  &lt;element name=&quot;Empleado&quot; type=&quot;actor&quot; height=&quot;50&quot; width=&quot;150&quot; y=&quot;100&quot; x=&quot;300&quot; id=&quot;2&quot;&gt;&#xa;    &lt;font color=&quot;#000000&quot; size=&quot;12&quot;&gt;&#xa;  &lt;/font&gt;&lt;/element&gt;&lt;font color=&quot;#000000&quot; size=&quot;12&quot;&gt;&#xa;  &lt;element name=&quot;Cliente&quot; type=&quot;actor&quot; height=&quot;50&quot; width=&quot;150&quot; y=&quot;100&quot; x=&quot;500&quot; id=&quot;3&quot;&gt;&#xa;    &lt;font color=&quot;#000000&quot; size=&quot;12&quot;&gt;&#xa;  &lt;/font&gt;&lt;/element&gt;&lt;font color=&quot;#000000&quot; size=&quot;12&quot;&gt;&#xa;  &lt;element name=&quot;Gestionar Productos&quot; type=&quot;usecase&quot; height=&quot;50&quot; width=&quot;200&quot; y=&quot;250&quot; x=&quot;100&quot; id=&quot;4&quot;&gt;&#xa;    &lt;font color=&quot;#000000&quot; size=&quot;12&quot;&gt;&#xa;  &lt;/font&gt;&lt;/element&gt;&lt;font color=&quot;#000000&quot; size=&quot;12&quot;&gt;&#xa;  &lt;element name=&quot;Gestionar Ventas&quot; type=&quot;usecase&quot; height=&quot;50&quot; width=&quot;200&quot; y=&quot;250&quot; x=&quot;350&quot; id=&quot;5&quot;&gt;&#xa;    &lt;font color=&quot;#000000&quot; size=&quot;12&quot;&gt;&#xa;  &lt;/font&gt;&lt;/element&gt;&lt;font color=&quot;#000000&quot; size=&quot;12&quot;&gt;&#xa;  &lt;element name=&quot;Gestionar Compras&quot; type=&quot;usecase&quot; height=&quot;50&quot; width=&quot;200&quot; y=&quot;250&quot; x=&quot;600&quot; id=&quot;6&quot;&gt;&#xa;    &lt;font color=&quot;#000000&quot; size=&quot;12&quot;&gt;&#xa;  &lt;/font&gt;&lt;/element&gt;&lt;font color=&quot;#000000&quot; size=&quot;12&quot;&gt;&#xa;  &lt;element name=&quot;Gestionar Clientes&quot; type=&quot;usecase&quot; height=&quot;50&quot; width=&quot;200&quot; y=&quot;400&quot; x=&quot;100&quot; id=&quot;7&quot;&gt;&#xa;    &lt;font color=&quot;#000000&quot; size=&quot;12&quot;&gt;&#xa;  &lt;/font&gt;&lt;/element&gt;&lt;font color=&quot;#000000&quot; size=&quot;12&quot;&gt;&#xa;  &lt;element name=&quot;Gestionar Proveedores&quot; type=&quot;usecase&quot; height=&quot;50&quot; width=&quot;200&quot; y=&quot;400&quot; x=&quot;350&quot; id=&quot;8&quot;&gt;&#xa;    &lt;font color=&quot;#000000&quot; size=&quot;12&quot;&gt;&#xa;  &lt;/font&gt;&lt;/element&gt;&lt;font color=&quot;#000000&quot; size=&quot;12&quot;&gt;&#xa;  &lt;element name=&quot;Gestionar Cajas&quot; type=&quot;usecase&quot; height=&quot;50&quot; width=&quot;200&quot; y=&quot;400&quot; x=&quot;600&quot; id=&quot;9&quot;&gt;&#xa;    &lt;font color=&quot;#000000&quot; size=&quot;12&quot;&gt;&#xa;  &lt;/font&gt;&lt;/element&gt;&lt;font color=&quot;#000000&quot; size=&quot;12&quot;&gt;&#xa;  &lt;element name=&quot;Gestionar Inventario&quot; type=&quot;usecase&quot; height=&quot;50&quot; width=&quot;200&quot; y=&quot;550&quot; x=&quot;100&quot; id=&quot;10&quot;&gt;&#xa;    &lt;font color=&quot;#000000&quot; size=&quot;12&quot;&gt;&#xa;  &lt;/font&gt;&lt;/element&gt;&lt;font color=&quot;#000000&quot; size=&quot;12&quot;&gt;&#xa;  &lt;element name=&quot;Gestionar Gastos&quot; type=&quot;usecase&quot; height=&quot;50&quot; width=&quot;200&quot; y=&quot;550&quot; x=&quot;350&quot; id=&quot;11&quot;&gt;&#xa;    &lt;font color=&quot;#000000&quot; size=&quot;12&quot;&gt;&#xa;  &lt;/font&gt;&lt;/element&gt;&lt;font color=&quot;#000000&quot; size=&quot;12&quot;&gt;&#xa;  &lt;element name=&quot;Gestionar Cotizaciones&quot; type=&quot;usecase&quot; height=&quot;50&quot; width=&quot;200&quot; y=&quot;550&quot; x=&quot;600&quot; id=&quot;12&quot;&gt;&#xa;    &lt;font color=&quot;#000000&quot; size=&quot;12&quot;&gt;&#xa;  &lt;/font&gt;&lt;/element&gt;&lt;font color=&quot;#000000&quot; size=&quot;12&quot;&gt;&#xa;  &lt;element name=&quot;Gestionar Creditos&quot; type=&quot;usecase&quot; height=&quot;50&quot; width=&quot;200&quot; y=&quot;700&quot; x=&quot;100&quot; id=&quot;13&quot;&gt;&#xa;    &lt;font color=&quot;#000000&quot; size=&quot;12&quot;&gt;&#xa;  &lt;/font&gt;&lt;/element&gt;&lt;font color=&quot;#000000&quot; size=&quot;12&quot;&gt;&#xa;  &lt;element name=&quot;Gestionar Abonos&quot; type=&quot;usecase&quot; height=&quot;50&quot; width=&quot;200&quot; y=&quot;700&quot; x=&quot;350&quot; id=&quot;14&quot;&gt;&#xa;    &lt;font color=&quot;#000000&quot; size=&quot;12&quot;&gt;&#xa;  &lt;/font&gt;&lt;/element&gt;&lt;font color=&quot;#000000&quot; size=&quot;12&quot;&gt;&#xa;  &lt;element name=&quot;Gestionar Configuracion&quot; type=&quot;usecase&quot; height=&quot;50&quot; width=&quot;200&quot; y=&quot;700&quot; x=&quot;600&quot; id=&quot;15&quot;&gt;&#xa;    &lt;font color=&quot;#000000&quot; size=&quot;12&quot;&gt;&#xa;  &lt;/font&gt;&lt;/element&gt;&lt;font color=&quot;#000000&quot; size=&quot;12&quot;&gt;&#xa;  &#xa;  &#xa;  &#xa;  &#xa;  &#xa;  &#xa;  &#xa;  &#xa;  &#xa;  &#xa;  &#xa;  &#xa;  &#xa;  &#xa;  &#xa;  &#xa;  &#xa;  &#xa;  &#xa;  &#xa;  &#xa;  &#xa;  &#xa;  &#xa;  &#xa;  &#xa;  &#xa;  &#xa;&lt;/font&gt;&lt;/font&gt;&lt;/font&gt;&lt;/font&gt;&lt;/font&gt;&lt;/font&gt;&lt;/font&gt;&lt;/font&gt;&lt;/font&gt;&lt;/font&gt;&lt;/font&gt;&lt;/font&gt;&lt;/font&gt;&lt;/font&gt;&lt;/font&gt;" style="text;whiteSpace=wrap;html=1;rotation=90;" vertex="1" parent="1">
          <mxGeometry width="850" height="4190" as="geometry" />
        </mxCell>
        <mxCell id="AoyPTIkJTHfzgpTR4V4o-4" value="Administrador del sistema" style="shape=umlActor;whiteSpace=wrap;html=1;" vertex="1" parent="1">
          <mxGeometry x="20" y="140" width="50" height="80" as="geometry" />
        </mxCell>
        <mxCell id="AoyPTIkJTHfzgpTR4V4o-5" value="Alumnos" style="shape=umlActor;whiteSpace=wrap;html=1;" vertex="1" parent="1">
          <mxGeometry x="20" y="300" width="50" height="80" as="geometry" />
        </mxCell>
        <mxCell id="AoyPTIkJTHfzgpTR4V4o-6" value="Profesores" style="shape=umlActor;whiteSpace=wrap;html=1;" vertex="1" parent="1">
          <mxGeometry x="20" y="460" width="50" height="80" as="geometry" />
        </mxCell>
        <mxCell id="AoyPTIkJTHfzgpTR4V4o-7" value="Registrar alumnos/profesores" style="ellipse;whiteSpace=wrap;html=1;" vertex="1" parent="1">
          <mxGeometry x="180" y="150" width="160" height="80" as="geometry" />
        </mxCell>
        <mxCell id="AoyPTIkJTHfzgpTR4V4o-8" value="Consultar libros disponibles" style="ellipse;whiteSpace=wrap;html=1;" vertex="1" parent="1">
          <mxGeometry x="180" y="300" width="160" height="80" as="geometry" />
        </mxCell>
        <mxCell id="AoyPTIkJTHfzgpTR4V4o-9" value="Realizar préstamos" style="ellipse;whiteSpace=wrap;html=1;" vertex="1" parent="1">
          <mxGeometry x="180" y="450" width="160" height="80" as="geometry" />
        </mxCell>
        <mxCell id="AoyPTIkJTHfzgpTR4V4o-10" value="Devolver libros" style="ellipse;whiteSpace=wrap;html=1;" vertex="1" parent="1">
          <mxGeometry x="180" y="600" width="160" height="80" as="geometry" />
        </mxCell>
        <mxCell id="AoyPTIkJTHfzgpTR4V4o-11" value="Generar reportes" style="ellipse;whiteSpace=wrap;html=1;" vertex="1" parent="1">
          <mxGeometry x="400" y="300" width="160" height="80" as="geometry" />
        </mxCell>
        <mxCell id="AoyPTIkJTHfzgpTR4V4o-12" edge="1" parent="1" source="AoyPTIkJTHfzgpTR4V4o-4" target="AoyPTIkJTHfzgpTR4V4o-7">
          <mxGeometry relative="1" as="geometry" />
        </mxCell>
        <mxCell id="AoyPTIkJTHfzgpTR4V4o-13" edge="1" parent="1" source="AoyPTIkJTHfzgpTR4V4o-4" target="AoyPTIkJTHfzgpTR4V4o-11">
          <mxGeometry relative="1" as="geometry" />
        </mxCell>
        <mxCell id="AoyPTIkJTHfzgpTR4V4o-14" edge="1" parent="1" source="AoyPTIkJTHfzgpTR4V4o-5" target="AoyPTIkJTHfzgpTR4V4o-9">
          <mxGeometry relative="1" as="geometry" />
        </mxCell>
        <mxCell id="AoyPTIkJTHfzgpTR4V4o-15" edge="1" parent="1" source="AoyPTIkJTHfzgpTR4V4o-5" target="AoyPTIkJTHfzgpTR4V4o-8">
          <mxGeometry relative="1" as="geometry" />
        </mxCell>
        <mxCell id="AoyPTIkJTHfzgpTR4V4o-16" edge="1" parent="1" source="AoyPTIkJTHfzgpTR4V4o-6" target="AoyPTIkJTHfzgpTR4V4o-9">
          <mxGeometry relative="1" as="geometry" />
        </mxCell>
        <mxCell id="AoyPTIkJTHfzgpTR4V4o-17" edge="1" parent="1" source="AoyPTIkJTHfzgpTR4V4o-6" target="AoyPTIkJTHfzgpTR4V4o-8">
          <mxGeometry relative="1" as="geometry" />
        </mxCell>
        <mxCell id="AoyPTIkJTHfzgpTR4V4o-18" edge="1" parent="1" source="AoyPTIkJTHfzgpTR4V4o-5" target="AoyPTIkJTHfzgpTR4V4o-10">
          <mxGeometry relative="1" as="geometry" />
        </mxCell>
        <mxCell id="AoyPTIkJTHfzgpTR4V4o-19" edge="1" parent="1" source="AoyPTIkJTHfzgpTR4V4o-6" target="AoyPTIkJTHfzgpTR4V4o-10">
          <mxGeometry relative="1" as="geometry" />
        </mxCell>
      </root>
    </mxGraphModel>
  </diagram>
</mxfile>
